<svg width="37" height="33" viewBox="0 0 37 33" fill="none" xmlns="http://www.w3.org/2000/svg">
<path d="M0 2H5.14557L10.8333 20.4545H29.8285L34.2727 7.72826H12.5692" stroke="currentColor" stroke-width="3"/>
<path fill-rule="evenodd" clip-rule="evenodd" d="M14.0606 31C15.5166 31 16.697 29.8197 16.697 28.3637C16.697 26.9076 15.5166 25.7273 14.0606 25.7273C12.6046 25.7273 11.4242 26.9076 11.4242 28.3637C11.4242 29.8197 12.6046 31 14.0606 31Z" stroke="currentColor" stroke-width="3"/>
<path fill-rule="evenodd" clip-rule="evenodd" d="M26.3636 31C27.8197 31 29 29.8197 29 28.3637C29 26.9076 27.8197 25.7273 26.3636 25.7273C24.9076 25.7273 23.7273 26.9076 23.7273 28.3637C23.7273 29.8197 24.9076 31 26.3636 31Z" stroke="currentColor" stroke-width="3"/>
</svg>
