<svg width="30" height="30" viewBox="0 0 30 30" fill="none" xmlns="http://www.w3.org/2000/svg">
<path opacity="0.15" d="M17.923 2.15203C17.923 2.15203 24.429 20.435 21.752 23.523L19.294 24.61L18.17 21.928L16.152 19.447L13.229 17.141L9.90199 15C9.90199 15 8.28799 13.065 10.965 12.818L13.93 14.465L14.753 14.63L13.734 11.604L11.953 7.58903C11.953 7.58903 10.43 4.54203 12.488 4.62403C12.488 4.62403 13.888 4.95303 14.423 7.05303L16.07 10.018L15.247 6.64203C15.247 6.64203 13.394 3.14203 15 2.52503C15 2.52503 15.906 1.45403 16.729 3.80103L18.257 8.24803L19.2 9.81203C19.2 9.81203 16.935 2.06903 17.923 2.15203Z" fill="white"/>
<path opacity="0.15" d="M9.46901 0.999015L14.489 14.022L10.594 12.9L9.29801 14.023C9.29801 14.023 14.21 21.319 13.298 22.371L10.84 23.458L9.71601 20.776L7.69801 18.295L4.77501 15.989L1.44801 13.848C1.44801 13.848 -0.165987 11.913 2.51101 11.666L5.47601 13.313L6.29901 13.478L5.28001 10.45L3.49901 6.43601C3.49901 6.43601 1.97601 3.38901 4.03401 3.47101C4.03401 3.47101 5.43401 3.80001 5.96901 5.90001L7.61601 8.86501L6.79301 5.48901C6.79301 5.48901 4.94001 1.98901 6.54601 1.37201C6.54601 1.37201 7.45201 0.301015 8.27501 2.64801L9.80301 7.09501L10.745 8.66001C10.746 8.65901 8.48101 0.916015 9.46901 0.999015Z" fill="white"/>
<path fill-rule="evenodd" clip-rule="evenodd" d="M29.47 25.162L28.548 22.443C28.429 22.093 28.181 21.81 27.85 21.647C27.629 21.538 27.392 21.514 27.154 21.529L26.047 18.102C26.126 17.586 26.384 15.288 25.213 12.667C25.203 12.639 24.222 9.89 24.171 6.789C24.175 6.526 24.186 4.195 23.18 3.398C22.869 3.152 22.49 3.068 22.081 3.156C21.944 3.159 21.778 3.21 21.63 3.348C21.214 3.736 21.12 4.624 21.332 6.077L21.32 6.796C21.097 5.804 20.867 4.827 20.703 4.245C20.662 4.046 20.276 2.288 19.254 1.799C18.995 1.674 18.588 1.582 18.082 1.813C17.899 1.843 17.67 1.951 17.502 2.184C17.116 2.72 17.179 3.682 17.682 5.083C17.6828 5.08678 17.6917 5.12406 17.7073 5.18958L17.7076 5.1908L17.7077 5.19123L17.7081 5.19308L17.7083 5.1941C17.7342 5.30268 17.7778 5.48554 17.833 5.72L17.25 4.189L16.589 2.773C16.575 2.732 16.234 1.785 14.671 2.289C14.619 2.315 14.154 2.559 13.959 3.148C13.794 3.647 13.875 4.223 14.176 4.801L14.684 6.354C14.696 6.404 14.806 6.85 14.962 7.455L14.783 7.177L14.041 5.412C14.006 5.331 13.682 4.616 12.998 4.371C12.859 4.321 12.714 4.304 12.568 4.301C12.429 3.707 12.309 3.218 12.207 2.857C12.166 2.658 11.78 0.900004 10.758 0.411004C10.5 0.287004 10.09 0.194004 9.58602 0.426004C9.40302 0.456004 9.17502 0.564004 9.00702 0.797004C8.62002 1.333 8.68302 2.294 9.18602 3.696C9.18682 3.70002 9.19679 3.74185 9.21426 3.81511C9.24034 3.92446 9.28312 4.10385 9.33702 4.332L8.75302 2.802L8.09102 1.387C8.07802 1.346 7.73902 0.399004 6.17302 0.903004C6.12102 0.929004 5.65602 1.173 5.46102 1.762C5.29602 2.26 5.37702 2.836 5.67802 3.414L6.18602 4.967C6.19802 5.017 6.30802 5.463 6.46402 6.068L6.28502 5.79L5.54302 4.025C5.50802 3.944 5.18402 3.229 4.50002 2.984C4.12302 2.849 3.71002 2.889 3.29702 3.102C3.18302 3.165 2.19902 3.777 2.99602 6.081C3.15502 6.415 3.58502 7.396 3.67002 7.92C3.67702 7.96 3.68902 7.999 3.70702 8.035C3.70702 8.035 4.45302 9.521 4.79102 10.136C4.99802 10.511 5.33102 11.682 5.56802 12.586L4.70302 12.117C3.89402 11.441 2.04102 10.52 0.855017 11.833C0.809017 11.869 0.406017 12.204 0.461017 12.774C0.521017 13.388 1.07202 13.952 2.12202 14.485C2.89202 14.945 5.02102 16.313 5.61302 17.109C5.90202 17.498 6.81402 18.318 7.04402 18.416L8.23002 19.318C8.23002 19.318 8.79902 19.859 9.20902 20.303C9.46502 20.816 9.82202 21.596 9.86502 21.865L10.157 22.959C9.80902 23.104 9.54902 23.379 9.41602 23.707C9.29802 23.997 9.28002 24.327 9.38802 24.646L10.326 27.411C10.518 27.977 11.048 28.334 11.614 28.334C11.758 28.334 11.905 28.311 12.049 28.262L17.962 26.257L18.816 28.775C18.935 29.125 19.183 29.408 19.514 29.571C19.708 29.667 19.915 29.715 20.125 29.715C20.276 29.715 20.425 29.69 20.572 29.641L28.606 26.917C29.327 26.672 29.715 25.885 29.47 25.162ZM13.313 5.722L14.085 7.543L14.649 8.423L15.949 11.133C16.02 11.28 16.164 11.369 16.336 11.356C16.498 11.343 16.636 11.232 16.683 11.076L16.727 10.929C16.753 10.843 16.749 10.751 16.716 10.668C16.3435 9.72746 15.5971 6.75096 15.4635 6.21817L15.443 6.137L14.903 4.498C14.3555 3.4269 14.906 3.05998 14.9655 3.02032L14.966 3.02C15.556 2.829 15.801 2.955 15.855 3.067L16.521 4.497L18.822 10.529C18.892 10.713 19.083 10.819 19.279 10.774C19.471 10.73 19.601 10.552 19.585 10.356C19.494 9.251 18.494 5.076 18.439 4.858C17.878 3.292 18.06 2.786 18.129 2.668C18.1496 2.6336 18.1689 2.6152 18.1791 2.60548C18.1872 2.59768 18.1896 2.59545 18.182 2.595C18.243 2.594 18.312 2.581 18.371 2.552C18.642 2.414 18.808 2.462 18.911 2.511C19.417 2.753 19.803 3.801 19.934 4.431C20.3523 5.91787 21.2166 10.0699 21.2604 10.2801L21.2604 10.2802L21.2604 10.2802L21.262 10.288C21.303 10.485 21.472 10.618 21.686 10.602C21.887 10.583 22.041 10.417 22.045 10.216L22.118 6.032C21.897 4.478 22.091 4.043 22.152 3.95C22.173 3.948 22.193 3.945 22.214 3.939C22.41 3.889 22.555 3.915 22.688 4.02C23.218 4.439 23.393 5.934 23.379 6.791C23.433 10.041 24.427 12.821 24.48 12.964C25.6743 15.6404 25.265 17.9839 25.2523 18.0565L25.252 18.058C25.239 18.123 25.243 18.191 25.264 18.254L26.383 21.716L19.401 24.084L19.134 23.09C19.065 22.648 18.5 21.51 18.388 21.286C18.3834 21.2769 18.3766 21.2693 18.3697 21.2618C18.3645 21.2561 18.3593 21.2504 18.355 21.244C18.3505 21.2374 18.347 21.2305 18.3435 21.2236C18.3385 21.2139 18.3337 21.2042 18.326 21.196C17.898 20.729 17.271 20.132 17.238 20.104L15.949 19.131C15.786 19.047 14.989 18.355 14.743 18.025C13.937 16.94 11.142 15.264 11 15.18C9.92102 14.631 9.76302 14.236 9.74502 14.091C9.72714 13.944 9.83157 13.8473 9.8859 13.797L9.88702 13.796C10.8861 12.6963 12.5092 13.9615 12.7368 14.1388L12.755 14.153L14.478 15.097C14.617 15.173 14.784 15.159 14.908 15.065C15.032 14.969 15.088 14.81 15.052 14.658C14.983 14.372 14.368 11.85 13.979 11.142C13.683 10.603 13.068 9.384 12.935 9.119C12.794 8.371 12.231 7.182 12.222 7.17C11.7039 5.66702 12.1213 5.23182 12.1602 5.19123C12.1623 5.18905 12.1633 5.188 12.163 5.188C12.374 5.079 12.558 5.057 12.726 5.115C13.036 5.223 13.256 5.593 13.313 5.722ZM7.45302 17.745L8.74202 18.718C8.77502 18.746 9.40202 19.344 9.83102 19.807C9.83857 19.8157 9.84342 19.8251 9.84832 19.8346C9.85185 19.8414 9.85541 19.8483 9.86002 19.855C9.86418 19.8613 9.86922 19.8666 9.87425 19.872C9.8813 19.8796 9.88835 19.8871 9.89302 19.897C10.005 20.12 10.57 21.259 10.639 21.701L10.906 22.695L16.742 20.717C16.737 20.713 16.728 20.704 16.728 20.704L15.542 19.802C15.313 19.704 14.4 18.884 14.111 18.495C13.519 17.7 11.39 16.332 10.62 15.871C9.57002 15.338 9.01902 14.774 8.95902 14.16C8.90402 13.59 9.30702 13.255 9.35302 13.219C10.539 11.906 12.392 12.826 13.201 13.503L14.066 13.972C13.829 13.068 13.496 11.897 13.289 11.522C12.951 10.907 12.205 9.421 12.205 9.421C12.187 9.385 12.175 9.346 12.168 9.306C12.083 8.783 11.653 7.802 11.494 7.468C10.697 5.164 11.681 4.552 11.795 4.489L11.7957 4.48853L11.797 4.488L11.7979 4.48768L11.799 4.487C11.662 3.903 11.544 3.419 11.438 3.043C11.307 2.413 10.921 1.366 10.415 1.124C10.313 1.076 10.146 1.026 9.87502 1.165C9.81602 1.194 9.74702 1.204 9.68602 1.208C9.69358 1.20845 9.69125 1.21068 9.68306 1.21848C9.67285 1.22821 9.65355 1.2466 9.63302 1.281C9.56402 1.399 9.38302 1.904 9.94302 3.471C9.99802 3.689 10.998 7.865 11.09 8.969C11.106 9.165 10.976 9.343 10.784 9.387C10.589 9.431 10.397 9.326 10.327 9.142L8.02502 3.11L7.35802 1.679C7.30302 1.568 7.05802 1.445 6.46902 1.633L6.46866 1.63324C6.40976 1.67251 5.85814 2.04019 6.40602 3.111L6.94602 4.75L6.9528 4.77718C7.03553 5.10957 7.82986 8.30088 8.22002 9.282C8.25302 9.366 8.25702 9.457 8.23102 9.542L8.18702 9.689C8.14002 9.845 8.00202 9.956 7.83902 9.969C7.68202 9.976 7.52202 9.893 7.45202 9.746L6.15202 7.036L5.58802 6.156L4.81602 4.335C4.75902 4.206 4.53802 3.837 4.23102 3.728C4.06302 3.67 3.87902 3.692 3.66802 3.801C3.66832 3.801 3.66733 3.80205 3.66523 3.80423C3.62631 3.84482 3.20894 4.28002 3.72702 5.783C3.73502 5.795 4.29902 6.984 4.43902 7.731C4.57302 7.997 5.18802 9.215 5.48302 9.756C5.87202 10.464 6.48702 12.986 6.55602 13.272C6.59202 13.424 6.53602 13.583 6.41202 13.679C6.28902 13.774 6.12002 13.788 5.98202 13.711L4.25902 12.767L4.243 12.7545C4.02412 12.583 2.39444 11.3057 1.39102 12.41L1.3899 12.411C1.33557 12.4613 1.23114 12.558 1.24902 12.705C1.26702 12.85 1.42502 13.245 2.50402 13.794C2.64602 13.878 5.44102 15.554 6.24702 16.639C6.49302 16.969 7.29002 17.661 7.45302 17.745ZM11.795 27.514C11.497 27.613 11.174 27.456 11.074 27.158L10.136 24.393C10.035 24.097 10.195 23.773 10.492 23.672L17.371 21.34C17.486 21.457 17.601 21.576 17.707 21.691C17.963 22.203 18.318 22.984 18.362 23.253L18.654 24.35C18.188 24.552 17.883 24.984 17.831 25.467L11.795 27.514ZM20.316 28.893L28.35 26.169C28.66 26.064 28.826 25.726 28.722 25.417L27.8 22.698C27.749 22.547 27.643 22.425 27.501 22.356C27.418 22.314 27.329 22.294 27.239 22.294C27.174 22.294 27.111 22.305 27.048 22.326L19.014 25.05C18.704 25.155 18.537 25.493 18.642 25.802L19.564 28.521C19.615 28.672 19.721 28.794 19.863 28.863C20.005 28.934 20.166 28.943 20.316 28.893Z" fill="white"/>
</svg>
