<?xml version="1.0" encoding="UTF-8"?>
<svg width="215px" height="60px" viewBox="0 0 215 60" version="1.1" xmlns="http://www.w3.org/2000/svg" xmlns:xlink="http://www.w3.org/1999/xlink">
    <!-- Generator: Sketch 63.1 (92452) - https://sketch.com -->
    <title>Logo</title>
    <desc>Created with Sketch.</desc>
    <g id="Page-1" stroke="none" stroke-width="1" fill="none" fill-rule="evenodd">
        <g id="Logo" transform="translate(0.000000, -11.000000)" fill-rule="nonzero">
            <polygon id="Line-9" fill="#FFFFFF" points="143 11 143 16.4133333 0 16.4133333 0 11"></polygon>
            <path d="M157.684,21.168 C159.448,21.168 160.96,20.58 160.96,18.696 C160.96,15.708 156.364,16.248 156.364,14.796 C156.364,14.28 156.82,14.028 157.732,14.016 C158.668,14.004 159.616,14.256 160.324,14.76 L160.324,13.08 C159.604,12.672 158.596,12.432 157.6,12.432 C155.944,12.432 154.528,13.2 154.528,14.82 C154.528,17.796 159.124,17.208 159.124,18.78 C159.124,19.38 158.524,19.584 157.552,19.584 C156.592,19.584 155.536,19.332 154.576,18.696 L154.576,20.412 C155.44,20.892 156.52,21.168 157.684,21.168 Z M164.248,21.168 C165.064,21.168 165.724,20.784 166.168,20.268 L166.168,21 L167.644,21 L167.644,15.24 L165.976,15.24 L165.976,18.996 C165.724,19.344 165.28,19.728 164.68,19.728 C163.996,19.728 163.576,19.356 163.576,18.588 L163.576,15.24 L161.908,15.24 L161.908,18.804 C161.908,20.136 162.688,21.168 164.248,21.168 Z M170.728,23.64 L170.728,20.388 C171.1,20.796 171.712,21.168 172.624,21.168 C174.448,21.168 175.432,19.692 175.432,18.12 C175.432,16.548 174.448,15.072 172.624,15.072 C171.556,15.072 170.896,15.564 170.536,16.08 L170.536,15.24 L169.06,15.24 L169.06,23.64 L170.728,23.64 Z M172.216,19.764 C171.484,19.764 170.944,19.308 170.716,18.804 L170.716,17.436 C170.944,16.932 171.484,16.476 172.216,16.476 C173.164,16.476 173.728,17.22 173.728,18.12 C173.728,19.02 173.164,19.764 172.216,19.764 Z M178.192,23.64 L178.192,20.388 C178.564,20.796 179.176,21.168 180.088,21.168 C181.912,21.168 182.896,19.692 182.896,18.12 C182.896,16.548 181.912,15.072 180.088,15.072 C179.02,15.072 178.36,15.564 178,16.08 L178,15.24 L176.524,15.24 L176.524,23.64 L178.192,23.64 Z M179.68,19.764 C178.948,19.764 178.408,19.308 178.18,18.804 L178.18,17.436 C178.408,16.932 178.948,16.476 179.68,16.476 C180.628,16.476 181.192,17.22 181.192,18.12 C181.192,19.02 180.628,19.764 179.68,19.764 Z M185.68,21 L185.68,12.24 L184.012,12.24 L184.012,21 L185.68,21 Z M188.008,23.796 C188.944,23.796 189.844,23.304 190.492,21.696 L193.048,15.24 L191.32,15.24 L189.892,19.128 L188.212,15.24 L186.448,15.24 L189.172,21.084 L189.16,21.108 C188.848,21.96 188.392,22.368 187.792,22.368 C187.564,22.368 187.336,22.332 187.108,22.284 L187.108,23.664 C187.408,23.736 187.708,23.796 188.008,23.796 Z M158.968,36.168 C159.856,36.168 160.684,35.976 161.404,35.628 L161.404,33.864 C160.9,34.32 160.108,34.56 159.244,34.56 C157.78,34.56 156.268,33.744 156.28,31.896 C156.28,29.868 157.768,29.028 159.244,29.028 C160.024,29.028 160.804,29.268 161.344,29.688 L161.344,27.972 C160.624,27.612 159.784,27.432 158.944,27.432 C156.7,27.432 154.444,28.824 154.432,31.896 C154.432,34.824 156.724,36.168 158.968,36.168 Z M164.224,36 L164.224,32.244 C164.464,31.896 164.92,31.512 165.508,31.512 C166.156,31.512 166.624,31.872 166.624,32.652 L166.624,36 L168.292,36 L168.292,32.436 C168.292,31.104 167.464,30.072 165.952,30.072 C165.232,30.072 164.644,30.372 164.224,30.768 L164.224,27.6 L162.556,27.6 L162.556,36 L164.224,36 Z M171.232,36.168 C172.084,36.168 172.744,35.904 173.308,35.46 C173.548,35.892 173.992,36.108 174.58,36.108 C174.904,36.108 175.24,36.036 175.504,35.94 L175.504,34.848 C175.396,34.884 175.288,34.896 175.192,34.896 C174.976,34.896 174.784,34.812 174.784,34.512 L174.784,32.676 C174.784,30.78 173.68,30.072 171.952,30.072 C171.064,30.072 170.188,30.3 169.72,30.456 L169.72,31.896 C170.26,31.68 170.968,31.464 171.76,31.464 C172.66,31.464 173.116,31.86 173.116,32.436 L173.116,32.64 C172.708,32.544 172.204,32.484 171.748,32.484 C170.596,32.484 169.216,32.94 169.216,34.404 C169.216,35.544 170.152,36.168 171.232,36.168 Z M171.82,34.98 C171.316,34.98 170.92,34.704 170.92,34.272 C170.92,33.684 171.52,33.48 172.132,33.48 C172.48,33.48 172.864,33.552 173.116,33.612 L173.116,34.512 C172.732,34.848 172.288,34.98 171.82,34.98 Z M177.136,29.28 C177.664,29.28 178.12,28.992 178.12,28.332 C178.12,27.684 177.664,27.396 177.136,27.396 C176.62,27.396 176.164,27.684 176.164,28.332 C176.164,28.992 176.62,29.28 177.136,29.28 Z M177.976,36 L177.976,30.24 L176.308,30.24 L176.308,36 L177.976,36 Z M181.084,36 L181.084,32.244 C181.324,31.896 181.78,31.512 182.368,31.512 C183.016,31.512 183.484,31.872 183.484,32.652 L183.484,36 L185.152,36 L185.152,32.436 C185.152,31.104 184.324,30.072 182.812,30.072 C181.984,30.072 181.336,30.456 180.892,30.972 L180.892,30.24 L179.416,30.24 L179.416,36 L181.084,36 Z M160.888,51 L160.888,49.416 L156.7,49.416 L156.7,47.544 L160.456,47.544 L160.456,45.972 L156.7,45.972 L156.7,44.184 L160.816,44.184 L160.816,42.6 L154.9,42.6 L154.9,51 L160.888,51 Z M164.944,51.168 C165.676,51.168 166.324,51.024 166.888,50.784 L166.888,49.308 C166.468,49.56 165.88,49.728 165.268,49.728 C164.368,49.728 163.504,49.224 163.504,48.12 C163.504,46.956 164.38,46.512 165.292,46.512 C165.844,46.512 166.42,46.68 166.828,46.944 L166.828,45.48 C166.312,45.204 165.688,45.06 165.052,45.06 C163.456,45.06 161.8,45.996 161.8,48.204 C161.8,50.256 163.372,51.168 164.944,51.168 Z M170.86,51.168 C172.54,51.168 174.04,50.136 174.04,48.12 C174.04,46.104 172.54,45.072 170.86,45.072 C169.192,45.072 167.68,46.104 167.68,48.12 C167.68,50.136 169.192,51.168 170.86,51.168 Z M170.86,49.68 C169.912,49.68 169.384,49.008 169.384,48.12 C169.384,47.232 169.912,46.56 170.86,46.56 C171.82,46.56 172.348,47.232 172.348,48.12 C172.348,49.008 171.82,49.68 170.86,49.68 Z M177.22,51.168 C178.6,51.168 179.836,50.748 179.836,49.392 C179.836,47.28 176.584,47.76 176.584,46.8 C176.584,46.452 177.016,46.344 177.388,46.344 C178.072,46.344 178.912,46.596 179.404,46.932 L179.404,45.564 C178.816,45.276 178.096,45.072 177.28,45.072 C176.068,45.072 174.88,45.516 174.88,46.848 C174.88,48.912 178.132,48.504 178.132,49.428 C178.132,49.752 177.736,49.86 177.124,49.86 C176.428,49.86 175.552,49.656 174.928,49.248 L174.928,50.628 C175.516,50.976 176.344,51.168 177.22,51.168 Z M181.744,53.796 C182.68,53.796 183.58,53.304 184.228,51.696 L186.784,45.24 L185.056,45.24 L183.628,49.128 L181.948,45.24 L180.184,45.24 L182.908,51.084 L182.896,51.108 C182.584,51.96 182.128,52.368 181.528,52.368 C181.3,52.368 181.072,52.332 180.844,52.284 L180.844,53.664 C181.144,53.736 181.444,53.796 181.744,53.796 Z M189.7,51.168 C191.08,51.168 192.316,50.748 192.316,49.392 C192.316,47.28 189.064,47.76 189.064,46.8 C189.064,46.452 189.496,46.344 189.868,46.344 C190.552,46.344 191.392,46.596 191.884,46.932 L191.884,45.564 C191.296,45.276 190.576,45.072 189.76,45.072 C188.548,45.072 187.36,45.516 187.36,46.848 C187.36,48.912 190.612,48.504 190.612,49.428 C190.612,49.752 190.216,49.86 189.604,49.86 C188.908,49.86 188.032,49.656 187.408,49.248 L187.408,50.628 C187.996,50.976 188.824,51.168 189.7,51.168 Z M195.844,51.168 C196.42,51.168 196.948,51.072 197.392,50.916 L197.392,49.572 C197.056,49.704 196.732,49.764 196.348,49.764 C195.724,49.764 195.424,49.5 195.424,48.9 L195.424,46.644 L197.248,46.644 L197.248,45.24 L195.424,45.24 L195.424,43.164 L193.768,43.56 L193.768,45.24 L192.796,45.24 L192.796,46.644 L193.768,46.644 L193.768,49.224 C193.768,50.652 194.728,51.168 195.844,51.168 Z M201.364,51.168 C202.228,51.168 202.936,51.036 203.476,50.808 L203.476,49.5 C202.984,49.716 202.396,49.848 201.736,49.848 C200.788,49.848 199.9,49.5 199.708,48.66 L203.764,48.66 C204.148,46.956 203.38,45.072 200.992,45.072 C199.696,45.072 198.028,45.948 198.028,48.12 C198.028,50.124 199.54,51.168 201.364,51.168 Z M202.264,47.58 L199.696,47.58 C199.72,46.788 200.344,46.344 201.052,46.344 C202.096,46.344 202.324,47.184 202.264,47.58 Z M206.584,51 L206.584,47.208 C206.86,46.848 207.316,46.512 207.82,46.512 C208.348,46.512 208.72,46.86 208.72,47.46 L208.72,51 L210.376,51 L210.376,47.352 C210.376,47.256 210.376,47.172 210.364,47.088 C210.64,46.776 211.048,46.512 211.504,46.512 C212.032,46.512 212.404,46.86 212.404,47.46 L212.404,51 L214.06,51 L214.06,47.352 C214.06,46.332 213.532,45.072 211.912,45.072 C211.12,45.072 210.472,45.456 209.992,45.924 C209.656,45.432 209.092,45.072 208.228,45.072 C207.352,45.072 206.692,45.552 206.392,45.912 L206.392,45.24 L204.916,45.24 L204.916,51 L206.584,51 Z" id="SupplyChainEcosystem" fill="#E02020"></path>
            <path d="M14.066,65.517 C16.463,65.517 19.095,64.718 21.022,63.402 L21.022,65 L26.897,65 L26.897,32.852 L21.022,32.852 L21.022,42.91 C18.954,41.453 16.51,40.748 14.066,40.748 C7.063,40.748 1.47,46.2 1.47,53.109 C1.47,59.924 7.063,65.517 14.066,65.517 Z M14.066,60.018 C10.259,60.018 7.11,56.822 7.11,53.109 C7.11,49.396 10.259,46.2 14.066,46.2 C17.873,46.2 21.022,49.396 21.022,53.109 C21.022,56.822 17.873,60.018 14.066,60.018 Z M42.313,65.517 C47.483,65.517 51.102,63.449 53.593,59.689 L48.658,56.963 C47.107,59.078 45.321,60.018 42.313,60.018 C38.694,60.018 36.25,58.185 35.263,55.083 L54.345,55.083 C54.392,54.566 54.439,54.002 54.439,53.485 C54.439,46.623 49.457,40.748 41.843,40.748 C34.84,40.748 29.247,46.2 29.247,53.109 C29.247,60.206 34.746,65.517 42.313,65.517 Z M48.188,50.43 L35.404,50.43 C36.485,47.986 38.976,46.2 41.843,46.2 C44.945,46.2 47.013,47.657 48.188,50.43 Z M62.57,65 L62.57,51.699 C62.57,48.268 64.356,46.2 67.364,46.2 C71.406,46.2 72.111,48.832 72.111,53.908 L72.111,65 L77.986,65 L77.986,51.699 C77.986,48.268 79.772,46.2 82.78,46.2 C86.822,46.2 87.527,48.832 87.527,53.908 L87.527,65 L93.402,65 L93.402,52.404 C93.402,45.307 90.864,40.748 84.002,40.748 C81.088,40.748 78.127,41.782 76.012,44.132 C74.508,41.97 72.111,40.748 68.586,40.748 C66.142,40.748 64.074,41.547 62.57,42.91 L62.57,40.983 L56.695,40.983 L56.695,65 L62.57,65 Z M108.066,65.517 C115.069,65.517 120.662,59.924 120.662,53.109 C120.662,46.2 115.069,40.748 108.066,40.748 C101.063,40.748 95.47,46.2 95.47,53.109 C95.47,59.924 101.063,65.517 108.066,65.517 Z M108.066,60.018 C104.259,60.018 101.11,56.822 101.11,53.109 C101.11,49.396 104.259,46.2 108.066,46.2 C111.873,46.2 115.022,49.396 115.022,53.109 C115.022,56.822 111.873,60.018 108.066,60.018 Z" id="Demo" fill="#E02020"></path>
            <path d="M71.39,39.709 L71.39,32.878 C72.743,33.802 74.591,34.363 76.274,34.363 C81.191,34.363 85.118,30.436 85.118,25.651 C85.118,20.8 81.191,16.972 76.274,16.972 C74.558,16.972 72.842,17.467 71.39,18.49 L71.39,17.137 L67.265,17.137 L67.265,39.709 L71.39,39.709 Z M76.274,30.502 C73.601,30.502 71.39,28.258 71.39,25.651 C71.39,23.044 73.601,20.8 76.274,20.8 C78.947,20.8 81.158,23.044 81.158,25.651 C81.158,28.258 78.947,30.502 76.274,30.502 Z M94.886,34.363 C96.569,34.363 98.417,33.802 99.77,32.878 L99.77,34 L103.895,34 L103.895,17.137 L99.77,17.137 L99.77,18.49 C98.318,17.467 96.602,16.972 94.886,16.972 C89.969,16.972 86.042,20.8 86.042,25.651 C86.042,30.436 89.969,34.363 94.886,34.363 Z M94.886,30.502 C92.213,30.502 90.002,28.258 90.002,25.651 C90.002,23.044 92.213,20.8 94.886,20.8 C97.559,20.8 99.77,23.044 99.77,25.651 C99.77,28.258 97.559,30.502 94.886,30.502 Z M114.257,40.105 C120.296,40.105 123.266,36.937 123.266,31.954 L123.266,17.137 L119.141,17.137 L119.141,18.49 C117.689,17.467 115.973,16.972 114.257,16.972 C109.34,16.972 105.413,20.8 105.413,25.651 C105.413,30.535 109.34,34.33 114.257,34.33 C115.94,34.33 117.656,33.802 119.141,32.614 C119.141,34.957 116.567,36.277 114.257,36.277 C112.475,36.277 110.429,35.716 108.68,34.858 L107.195,38.422 C109.241,39.511 111.782,40.105 114.257,40.105 Z M114.257,30.502 C111.584,30.502 109.373,28.258 109.373,25.651 C109.373,23.044 111.584,20.8 114.257,20.8 C116.93,20.8 119.141,23.044 119.141,25.651 C119.141,28.258 116.93,30.502 114.257,30.502 Z M133.958,34.363 C137.588,34.363 140.129,32.911 141.878,30.271 L138.413,28.357 C137.324,29.842 136.07,30.502 133.958,30.502 C131.417,30.502 129.701,29.215 129.008,27.037 L142.406,27.037 C142.439,26.674 142.472,26.278 142.472,25.915 C142.472,21.097 138.974,16.972 133.628,16.972 C128.711,16.972 124.784,20.8 124.784,25.651 C124.784,30.634 128.645,34.363 133.958,34.363 Z M138.083,23.77 L129.107,23.77 C129.866,22.054 131.615,20.8 133.628,20.8 C135.806,20.8 137.258,21.823 138.083,23.77 Z" id="Page" fill="#FFFFFF"></path>
            <polygon id="Line-9-Copy" fill="#E02020" points="143.785515 65.5866667 143.785515 71 0.718848485 71 0.718848485 65.5866667"></polygon>
        </g>
    </g>
</svg>