<?xml version="1.0" encoding="UTF-8"?>
<svg width="89px" height="25px" viewBox="0 0 89 25" version="1.1" xmlns="http://www.w3.org/2000/svg" xmlns:xlink="http://www.w3.org/1999/xlink">
    <!-- Generator: Sketch 63.1 (92452) - https://sketch.com -->
    <title>logo-mobile</title>
    <desc>Created with Sketch.</desc>
    <g id="Page-1" stroke="none" stroke-width="1" fill="none" fill-rule="evenodd">
        <g id="logo-mobile" transform="translate(0.000000, 0.000000)" fill-rule="nonzero">
            <polygon id="Line-9" fill="#FFFFFF" points="59.1953488 0 59.1953488 2.24086822 0 2.24086822 0 0"></polygon>
            <path d="M65.2738419,4.20907907 C66.0040558,4.20907907 66.6299535,3.96567442 66.6299535,3.18578605 C66.6299535,1.94889302 64.7274233,2.17242791 64.7274233,1.57136744 C64.7274233,1.35776744 64.916186,1.25345116 65.2937116,1.24848372 C65.6811721,1.24351628 66.0736,1.34783256 66.3666791,1.55646512 L66.3666791,0.861023256 C66.0686326,0.692130233 65.6513674,0.592781395 65.2390698,0.592781395 C64.5535628,0.592781395 63.9674047,0.910697674 63.9674047,1.58130233 C63.9674047,2.81322791 65.8699349,2.56982326 65.8699349,3.22055814 C65.8699349,3.46893023 65.6215628,3.55337674 65.2192,3.55337674 C64.8218047,3.55337674 64.3846698,3.44906047 63.9872744,3.18578605 L63.9872744,3.89613023 C64.3449302,4.09482791 64.792,4.20907907 65.2738419,4.20907907 Z M67.9910326,4.20907907 C68.3288186,4.20907907 68.6020279,4.05012093 68.7858233,3.83652093 L68.7858233,4.13953488 L69.3968186,4.13953488 L69.3968186,1.75516279 L68.7063442,1.75516279 L68.7063442,3.30997209 C68.6020279,3.45402791 68.4182326,3.61298605 68.1698605,3.61298605 C67.8867163,3.61298605 67.7128558,3.45899535 67.7128558,3.14107907 L67.7128558,1.75516279 L67.0223814,1.75516279 L67.0223814,3.23049302 C67.0223814,3.78187907 67.3452651,4.20907907 67.9910326,4.20907907 Z M70.6734512,5.23237209 L70.6734512,3.88619535 C70.8274419,4.05508837 71.0807814,4.20907907 71.458307,4.20907907 C72.2133581,4.20907907 72.6206884,3.59808372 72.6206884,2.94734884 C72.6206884,2.29661395 72.2133581,1.6856186 71.458307,1.6856186 C71.0162047,1.6856186 70.7429953,1.88928372 70.5939721,2.10288372 L70.5939721,1.75516279 L69.9829767,1.75516279 L69.9829767,5.23237209 L70.6734512,5.23237209 Z M71.289414,3.62788837 C70.9864,3.62788837 70.7628651,3.43912558 70.6684837,3.23049302 L70.6684837,2.66420465 C70.7628651,2.45557209 70.9864,2.2668093 71.289414,2.2668093 C71.6818419,2.2668093 71.9153116,2.5747907 71.9153116,2.94734884 C71.9153116,3.31990698 71.6818419,3.62788837 71.289414,3.62788837 Z M73.7632,5.23237209 L73.7632,3.88619535 C73.9171907,4.05508837 74.1705302,4.20907907 74.5480558,4.20907907 C75.303107,4.20907907 75.7104372,3.59808372 75.7104372,2.94734884 C75.7104372,2.29661395 75.303107,1.6856186 74.5480558,1.6856186 C74.1059535,1.6856186 73.8327442,1.88928372 73.6837209,2.10288372 L73.6837209,1.75516279 L73.0727256,1.75516279 L73.0727256,5.23237209 L73.7632,5.23237209 Z M74.3791628,3.62788837 C74.0761488,3.62788837 73.852614,3.43912558 73.7582326,3.23049302 L73.7582326,2.66420465 C73.852614,2.45557209 74.0761488,2.2668093 74.3791628,2.2668093 C74.7715907,2.2668093 75.0050605,2.5747907 75.0050605,2.94734884 C75.0050605,3.31990698 74.7715907,3.62788837 74.3791628,3.62788837 Z M76.8628837,4.13953488 L76.8628837,0.513302326 L76.1724093,0.513302326 L76.1724093,4.13953488 L76.8628837,4.13953488 Z M77.8265674,5.29694884 C78.2140279,5.29694884 78.586586,5.09328372 78.8548279,4.42764651 L79.912893,1.75516279 L79.1975814,1.75516279 L78.6064558,3.36461395 L77.911014,1.75516279 L77.1808,1.75516279 L78.3084093,4.17430698 L78.3034419,4.18424186 C78.1742884,4.53693023 77.9855256,4.70582326 77.7371535,4.70582326 C77.6427721,4.70582326 77.5483907,4.69092093 77.4540093,4.67105116 L77.4540093,5.24230698 C77.5781953,5.27211163 77.7023814,5.29694884 77.8265674,5.29694884 Z M65.8053581,10.4183814 C66.1729488,10.4183814 66.5157023,10.3389023 66.8137488,10.1948465 L66.8137488,9.46463256 C66.6051163,9.65339535 66.2772651,9.75274419 65.9196093,9.75274419 C65.3135814,9.75274419 64.6876837,9.41495814 64.6926512,8.64997209 C64.6926512,7.81047442 65.308614,7.46275349 65.9196093,7.46275349 C66.242493,7.46275349 66.5653767,7.56210233 66.7889116,7.73596279 L66.7889116,7.0256186 C66.4908651,6.87659535 66.1431442,6.80208372 65.7954233,6.80208372 C64.8665116,6.80208372 63.9326326,7.37830698 63.9276651,8.64997209 C63.9276651,9.86202791 64.8764465,10.4183814 65.8053581,10.4183814 Z M67.9810977,10.3488372 L67.9810977,8.79402791 C68.0804465,8.64997209 68.2692093,8.49101395 68.512614,8.49101395 C68.7808558,8.49101395 68.974586,8.64003721 68.974586,8.96292093 L68.974586,10.3488372 L69.6650605,10.3488372 L69.6650605,8.87350698 C69.6650605,8.32212093 69.322307,7.89492093 68.6964093,7.89492093 C68.3983628,7.89492093 68.1549581,8.01910698 67.9810977,8.18303256 L67.9810977,6.87162791 L67.2906233,6.87162791 L67.2906233,10.3488372 L67.9810977,10.3488372 Z M70.8820837,10.4183814 C71.2347721,10.4183814 71.5079814,10.3090977 71.7414512,10.1253023 C71.8408,10.3041302 72.0245953,10.3935442 72.268,10.3935442 C72.4021209,10.3935442 72.5412093,10.3637395 72.650493,10.324 L72.650493,9.87196279 C72.605786,9.88686512 72.5610791,9.89183256 72.5213395,9.89183256 C72.4319256,9.89183256 72.3524465,9.85706047 72.3524465,9.73287442 L72.3524465,8.97285581 C72.3524465,8.188 71.8954419,7.89492093 71.1801302,7.89492093 C70.8125395,7.89492093 70.4499163,7.98930233 70.256186,8.05387907 L70.256186,8.64997209 C70.4797209,8.56055814 70.7728,8.47114419 71.1006512,8.47114419 C71.4732093,8.47114419 71.6619721,8.63506977 71.6619721,8.87350698 L71.6619721,8.95795349 C71.4930791,8.91821395 71.2844465,8.89337674 71.0956837,8.89337674 C70.6188093,8.89337674 70.0475535,9.08213953 70.0475535,9.68816744 C70.0475535,10.1600744 70.435014,10.4183814 70.8820837,10.4183814 Z M71.1254884,9.92660465 C70.9168558,9.92660465 70.7529302,9.81235349 70.7529302,9.63352558 C70.7529302,9.39012093 71.0013023,9.30567442 71.2546419,9.30567442 C71.3986977,9.30567442 71.5576558,9.33547907 71.6619721,9.36031628 L71.6619721,9.73287442 C71.503014,9.87196279 71.3192186,9.92660465 71.1254884,9.92660465 Z M73.3260651,7.56706977 C73.5446326,7.56706977 73.7333953,7.44785116 73.7333953,7.17464186 C73.7333953,6.9064 73.5446326,6.7871814 73.3260651,6.7871814 C73.1124651,6.7871814 72.9237023,6.9064 72.9237023,7.17464186 C72.9237023,7.44785116 73.1124651,7.56706977 73.3260651,7.56706977 Z M73.673786,10.3488372 L73.673786,7.96446512 L72.9833116,7.96446512 L72.9833116,10.3488372 L73.673786,10.3488372 Z M74.9603535,10.3488372 L74.9603535,8.79402791 C75.0597023,8.64997209 75.2484651,8.49101395 75.4918698,8.49101395 C75.7601116,8.49101395 75.9538419,8.64003721 75.9538419,8.96292093 L75.9538419,10.3488372 L76.6443163,10.3488372 L76.6443163,8.87350698 C76.6443163,8.32212093 76.3015628,7.89492093 75.6756651,7.89492093 C75.3329116,7.89492093 75.0646698,8.05387907 74.8808744,8.26747907 L74.8808744,7.96446512 L74.2698791,7.96446512 L74.2698791,10.3488372 L74.9603535,10.3488372 Z M66.6001488,16.5581395 L66.6001488,15.9024372 L64.8665116,15.9024372 L64.8665116,15.1275163 L66.4213209,15.1275163 L66.4213209,14.4767814 L64.8665116,14.4767814 L64.8665116,13.7366326 L66.5703442,13.7366326 L66.5703442,13.0809302 L64.1213953,13.0809302 L64.1213953,16.5581395 L66.6001488,16.5581395 Z M68.2791442,16.6276837 C68.5821581,16.6276837 68.8504,16.5680744 69.0838698,16.4687256 L69.0838698,15.8577302 C68.9100093,15.9620465 68.6666047,16.0315907 68.4132651,16.0315907 C68.040707,16.0315907 67.6830512,15.8229581 67.6830512,15.3659535 C67.6830512,14.8841116 68.0456744,14.7003163 68.4232,14.7003163 C68.6517023,14.7003163 68.8901395,14.7698605 69.0590326,14.8791442 L69.0590326,14.2731163 C68.8454326,14.1588651 68.5871256,14.0992558 68.3238512,14.0992558 C67.6631814,14.0992558 66.9776744,14.4867163 66.9776744,15.4007256 C66.9776744,16.2501581 67.6284093,16.6276837 68.2791442,16.6276837 Z M70.728093,16.6276837 C71.4235349,16.6276837 72.0444651,16.2004837 72.0444651,15.3659535 C72.0444651,14.5314233 71.4235349,14.1042233 70.728093,14.1042233 C70.0376186,14.1042233 69.4117209,14.5314233 69.4117209,15.3659535 C69.4117209,16.2004837 70.0376186,16.6276837 70.728093,16.6276837 Z M70.728093,16.0117209 C70.3356651,16.0117209 70.1170977,15.7335442 70.1170977,15.3659535 C70.1170977,14.9983628 70.3356651,14.720186 70.728093,14.720186 C71.1254884,14.720186 71.3440558,14.9983628 71.3440558,15.3659535 C71.3440558,15.7335442 71.1254884,16.0117209 70.728093,16.0117209 Z M73.3608372,16.6276837 C73.932093,16.6276837 74.4437395,16.4538233 74.4437395,15.8925023 C74.4437395,15.0182326 73.0975628,15.2169302 73.0975628,14.8195349 C73.0975628,14.6754791 73.2763907,14.6307721 73.4303814,14.6307721 C73.7135256,14.6307721 74.0612465,14.7350884 74.2649116,14.8741767 L74.2649116,14.3078884 C74.021507,14.1886698 73.7234605,14.1042233 73.3856744,14.1042233 C72.8839628,14.1042233 72.392186,14.2880186 72.392186,14.8394047 C72.392186,15.6938047 73.7383628,15.5249116 73.7383628,15.9074047 C73.7383628,16.0415256 73.5744372,16.0862326 73.3210977,16.0862326 C73.032986,16.0862326 72.6703628,16.001786 72.4120558,15.832893 L72.4120558,16.4041488 C72.6554605,16.5482047 72.998214,16.6276837 73.3608372,16.6276837 Z M75.2335628,17.7155535 C75.6210233,17.7155535 75.9935814,17.5118884 76.2618233,16.8462512 L77.3198884,14.1737674 L76.6045767,14.1737674 L76.0134512,15.7832186 L75.3180093,14.1737674 L74.5877953,14.1737674 L75.7154047,16.5929116 L75.7104372,16.6028465 C75.5812837,16.9555349 75.3925209,17.1244279 75.1441488,17.1244279 C75.0497674,17.1244279 74.955386,17.1095256 74.8610047,17.0896558 L74.8610047,17.6609116 C74.9851907,17.6907163 75.1093767,17.7155535 75.2335628,17.7155535 Z M78.5269767,16.6276837 C79.0982326,16.6276837 79.6098791,16.4538233 79.6098791,15.8925023 C79.6098791,15.0182326 78.2637023,15.2169302 78.2637023,14.8195349 C78.2637023,14.6754791 78.4425302,14.6307721 78.5965209,14.6307721 C78.8796651,14.6307721 79.227386,14.7350884 79.4310512,14.8741767 L79.4310512,14.3078884 C79.1876465,14.1886698 78.8896,14.1042233 78.551814,14.1042233 C78.0501023,14.1042233 77.5583256,14.2880186 77.5583256,14.8394047 C77.5583256,15.6938047 78.9045023,15.5249116 78.9045023,15.9074047 C78.9045023,16.0415256 78.7405767,16.0862326 78.4872372,16.0862326 C78.1991256,16.0862326 77.8365023,16.001786 77.5781953,15.832893 L77.5781953,16.4041488 C77.8216,16.5482047 78.1643535,16.6276837 78.5269767,16.6276837 Z M81.070307,16.6276837 C81.3087442,16.6276837 81.5273116,16.5879442 81.711107,16.5233674 L81.711107,15.967014 C81.5720186,16.0216558 81.4378977,16.046493 81.2789395,16.046493 C81.0206326,16.046493 80.8964465,15.9372093 80.8964465,15.6888372 L80.8964465,14.7549581 L81.6514977,14.7549581 L81.6514977,14.1737674 L80.8964465,14.1737674 L80.8964465,13.3144 L80.2109395,13.4783256 L80.2109395,14.1737674 L79.8085767,14.1737674 L79.8085767,14.7549581 L80.2109395,14.7549581 L80.2109395,15.8229581 C80.2109395,16.4140837 80.6083349,16.6276837 81.070307,16.6276837 Z M83.3553302,16.6276837 C83.712986,16.6276837 84.0060651,16.5730419 84.2296,16.4786605 L84.2296,15.9372093 C84.0259349,16.0266233 83.7825302,16.0812651 83.5093209,16.0812651 C83.116893,16.0812651 82.7493023,15.9372093 82.6698233,15.5894884 L84.3488186,15.5894884 C84.5077767,14.8841116 84.1898605,14.1042233 83.2013395,14.1042233 C82.6648558,14.1042233 81.9743814,14.4668465 81.9743814,15.3659535 C81.9743814,16.1955163 82.6002791,16.6276837 83.3553302,16.6276837 Z M83.7278884,15.1424186 L82.6648558,15.1424186 C82.6747907,14.8145674 82.9330977,14.6307721 83.2261767,14.6307721 C83.6583442,14.6307721 83.7527256,14.978493 83.7278884,15.1424186 Z M85.5161674,16.5581395 L85.5161674,14.9884279 C85.6304186,14.8394047 85.8191814,14.7003163 86.027814,14.7003163 C86.2463814,14.7003163 86.4003721,14.8443721 86.4003721,15.0927442 L86.4003721,16.5581395 L87.0858791,16.5581395 L87.0858791,15.0480372 C87.0858791,15.0082977 87.0858791,14.9735256 87.0809116,14.9387535 C87.1951628,14.8096 87.3640558,14.7003163 87.5528186,14.7003163 C87.771386,14.7003163 87.9253767,14.8443721 87.9253767,15.0927442 L87.9253767,16.5581395 L88.6108837,16.5581395 L88.6108837,15.0480372 C88.6108837,14.6258047 88.3923163,14.1042233 87.7217116,14.1042233 C87.3938605,14.1042233 87.1256186,14.2631814 86.9269209,14.4569116 C86.7878326,14.2532465 86.5543628,14.1042233 86.196707,14.1042233 C85.8340837,14.1042233 85.5608744,14.3029209 85.4366884,14.4519442 L85.4366884,14.1737674 L84.825693,14.1737674 L84.825693,16.5581395 L85.5161674,16.5581395 Z" id="SupplyChainEcosystem" fill="#E02020"></path>
            <path d="M5.82266977,22.5675023 C6.81491628,22.5675023 7.90444186,22.2367535 8.70213023,21.6919907 L8.70213023,22.3534884 L11.134107,22.3534884 L11.134107,9.04571163 L8.70213023,9.04571163 L8.70213023,13.2092558 C7.84607442,12.6061256 6.83437209,12.3142884 5.82266977,12.3142884 C2.92375349,12.3142884 0.608511628,14.5711628 0.608511628,17.4311674 C0.608511628,20.2522605 2.92375349,22.5675023 5.82266977,22.5675023 Z M5.82266977,20.2911721 C4.24674884,20.2911721 2.9432093,18.9681767 2.9432093,17.4311674 C2.9432093,15.8941581 4.24674884,14.5711628 5.82266977,14.5711628 C7.3985907,14.5711628 8.70213023,15.8941581 8.70213023,17.4311674 C8.70213023,18.9681767 7.3985907,20.2911721 5.82266977,20.2911721 Z M17.515614,22.5675023 C19.6557535,22.5675023 21.1538512,21.7114465 22.1850093,20.1549814 L20.1421488,19.0265442 C19.500107,19.9020558 18.760786,20.2911721 17.515614,20.2911721 C16.0175163,20.2911721 15.005814,19.5323953 14.5972419,18.2483116 L22.4963023,18.2483116 C22.5157581,18.0342977 22.535214,17.8008279 22.535214,17.586814 C22.535214,14.7462651 20.4728977,12.3142884 17.3210558,12.3142884 C14.4221395,12.3142884 12.1068977,14.5711628 12.1068977,17.4311674 C12.1068977,20.3689953 14.3832279,22.5675023 17.515614,22.5675023 Z M19.9475907,16.322186 L14.6556093,16.322186 C15.103093,15.3104837 16.1342512,14.5711628 17.3210558,14.5711628 C18.6051395,14.5711628 19.4611953,15.174293 19.9475907,16.322186 Z M25.9010698,22.3534884 L25.9010698,16.847493 C25.9010698,15.4272186 26.6403907,14.5711628 27.8855628,14.5711628 C29.5587628,14.5711628 29.8506,15.6606884 29.8506,17.7619163 L29.8506,22.3534884 L32.2825767,22.3534884 L32.2825767,16.847493 C32.2825767,15.4272186 33.0218977,14.5711628 34.2670698,14.5711628 C35.9402698,14.5711628 36.232107,15.6606884 36.232107,17.7619163 L36.232107,22.3534884 L38.6640837,22.3534884 L38.6640837,17.1393302 C38.6640837,14.2015023 37.6134698,12.3142884 34.7729209,12.3142884 C33.5666605,12.3142884 32.3409442,12.7423163 31.4654326,13.715107 C30.8428465,12.8201395 29.8506,12.3142884 28.391414,12.3142884 C27.3797116,12.3142884 26.5236558,12.6450372 25.9010698,13.2092558 L25.9010698,12.4115674 L23.469093,12.4115674 L23.469093,22.3534884 L25.9010698,22.3534884 Z M44.7342977,22.5675023 C47.633214,22.5675023 49.9484558,20.2522605 49.9484558,17.4311674 C49.9484558,14.5711628 47.633214,12.3142884 44.7342977,12.3142884 C41.8353814,12.3142884 39.5201395,14.5711628 39.5201395,17.4311674 C39.5201395,20.2522605 41.8353814,22.5675023 44.7342977,22.5675023 Z M44.7342977,20.2911721 C43.1583767,20.2911721 41.8548372,18.9681767 41.8548372,17.4311674 C41.8548372,15.8941581 43.1583767,14.5711628 44.7342977,14.5711628 C46.3102186,14.5711628 47.6137581,15.8941581 47.6137581,17.4311674 C47.6137581,18.9681767 46.3102186,20.2911721 44.7342977,20.2911721 Z" id="Demo" fill="#E02020"></path>
            <path d="M29.5521395,11.8841907 L29.5521395,9.05647442 C30.1122186,9.43896744 30.8772047,9.67119535 31.5738884,9.67119535 C33.6092977,9.67119535 35.234893,8.0456 35.234893,6.06483256 C35.234893,4.05674419 33.6092977,2.47213023 31.5738884,2.47213023 C30.8635442,2.47213023 30.1532,2.67703721 29.5521395,3.10051163 L29.5521395,2.54043256 L27.8445814,2.54043256 L27.8445814,11.8841907 L29.5521395,11.8841907 Z M31.5738884,8.07292093 C30.4673907,8.07292093 29.5521395,7.1440093 29.5521395,6.06483256 C29.5521395,4.98565581 30.4673907,4.05674419 31.5738884,4.05674419 C32.680386,4.05674419 33.5956372,4.98565581 33.5956372,6.06483256 C33.5956372,7.1440093 32.680386,8.07292093 31.5738884,8.07292093 Z M39.2783907,9.67119535 C39.9750744,9.67119535 40.7400605,9.43896744 41.3001395,9.05647442 L41.3001395,9.52093023 L43.0076977,9.52093023 L43.0076977,2.54043256 L41.3001395,2.54043256 L41.3001395,3.10051163 C40.6990791,2.67703721 39.9887349,2.47213023 39.2783907,2.47213023 C37.2429814,2.47213023 35.617386,4.05674419 35.617386,6.06483256 C35.617386,8.0456 37.2429814,9.67119535 39.2783907,9.67119535 Z M39.2783907,8.07292093 C38.171893,8.07292093 37.2566419,7.1440093 37.2566419,6.06483256 C37.2566419,4.98565581 38.171893,4.05674419 39.2783907,4.05674419 C40.3848884,4.05674419 41.3001395,4.98565581 41.3001395,6.06483256 C41.3001395,7.1440093 40.3848884,8.07292093 39.2783907,8.07292093 Z M47.2970837,12.0481163 C49.7969488,12.0481163 51.0263907,10.7367116 51.0263907,8.6739814 L51.0263907,2.54043256 L49.3188326,2.54043256 L49.3188326,3.10051163 C48.7177721,2.67703721 48.0074279,2.47213023 47.2970837,2.47213023 C45.2616744,2.47213023 43.6360791,4.05674419 43.6360791,6.06483256 C43.6360791,8.0865814 45.2616744,9.65753488 47.2970837,9.65753488 C47.9937674,9.65753488 48.7041116,9.43896744 49.3188326,8.9471907 C49.3188326,9.91708372 48.2533163,10.4635023 47.2970837,10.4635023 C46.5594186,10.4635023 45.7124698,10.2312744 44.9884651,9.87610233 L44.3737442,11.3514326 C45.220693,11.8022279 46.2725488,12.0481163 47.2970837,12.0481163 Z M47.2970837,8.07292093 C46.190586,8.07292093 45.2753349,7.1440093 45.2753349,6.06483256 C45.2753349,4.98565581 46.190586,4.05674419 47.2970837,4.05674419 C48.4035814,4.05674419 49.3188326,4.98565581 49.3188326,6.06483256 C49.3188326,7.1440093 48.4035814,8.07292093 47.2970837,8.07292093 Z M55.4523814,9.67119535 C56.9550326,9.67119535 58.0068884,9.07013488 58.730893,7.97729767 L57.2965442,7.1849907 C56.8457488,7.79971163 56.3266512,8.07292093 55.4523814,8.07292093 C54.4005256,8.07292093 53.6901814,7.54016279 53.4033116,6.63857209 L58.9494605,6.63857209 C58.9631209,6.48830698 58.9767814,6.3243814 58.9767814,6.17411628 C58.9767814,4.17968837 57.5287721,2.47213023 55.3157767,2.47213023 C53.2803674,2.47213023 51.6547721,4.05674419 51.6547721,6.06483256 C51.6547721,8.12756279 53.2530465,9.67119535 55.4523814,9.67119535 Z M57.1599395,5.28618605 L53.444293,5.28618605 C53.7584837,4.57584186 54.4824884,4.05674419 55.3157767,4.05674419 C56.2173674,4.05674419 56.8184279,4.4802186 57.1599395,5.28618605 Z" id="Page" fill="#FFFFFF"></path>
            <polygon id="Line-9-Copy" fill="#E02020" points="59.5205156 22.5963411 59.5205156 24.8372093 0.297569838 24.8372093 0.297569838 22.5963411"></polygon>
        </g>
    </g>
</svg>