<?xml version="1.0" encoding="UTF-8"?>
<svg width="17px" height="16px" viewBox="0 0 17 16" version="1.1" xmlns="http://www.w3.org/2000/svg" xmlns:xlink="http://www.w3.org/1999/xlink">
    <!-- Generator: Sketch 52.6 (67491) - http://www.bohemiancoding.com/sketch -->
    <title>iconfinder_Essentials_screen_computer_5298751</title>
    <desc>Created with Sketch.</desc>
    <g id="BuyGrid" stroke="none" stroke-width="1" fill="none" fill-rule="evenodd" stroke-linecap="round" stroke-linejoin="round">
        <g id="buygrid_catalog-1600" transform="translate(-515.000000, -122.000000)" stroke="#FFFFFF">
            <g id="Group-28-Copy-2" transform="translate(505.000000, 114.000000)">
                <g id="iconfinder_Essentials_screen_computer_5298751" transform="translate(10.000000, 8.000000)">
                    <path d="M0.5,1.5 L0.5,10.5 C0.5,11.0522847 0.94771525,11.5 1.5,11.5 L15.5,11.5 C16.0522847,11.5 16.5,11.0522847 16.5,10.5 L16.5,1.5 C16.5,0.94771525 16.0522847,0.5 15.5,0.5 L1.5,0.5 C0.94771525,0.5 0.5,0.94771525 0.5,1.5 Z" id="Path"></path>
                    <path d="M4.46153846,15.5 L12.5384615,15.5" id="Path"></path>
                    <path d="M6.76923077,11.9615385 C6.76923077,13.1730769 6.36538462,14.6153846 5.73076923,15.4230769" id="Path"></path>
                    <path d="M11.2692308,15.4230769 C10.6346154,14.6153846 10.2307692,13.1730769 10.2307692,11.9615385" id="Path"></path>
                    <path d="M1,8.5 L16,8.5" id="Path"></path>
                </g>
            </g>
        </g>
    </g>
</svg>