<svg width="101" height="36" viewBox="0 0 101 36" fill="none" xmlns="http://www.w3.org/2000/svg">
<g opacity="0.2">
<path fill-rule="evenodd" clip-rule="evenodd" d="M101 0H53V17H101V0ZM54.3714 15.64V1.36H99.6286V15.64H54.3714Z" fill="white"/>
<path d="M69 1V16H70V1H69Z" fill="white"/>
<path d="M85 1V16H86V1H85Z" fill="white"/>
<path d="M74 4V13H75V4L74 4Z" fill="white"/>
<path d="M86 8H100V7H86V8Z" fill="white"/>
<path d="M53 0.991195L68.0088 16L69 15.0088L53.9912 0L53 0.991195Z" fill="white"/>
<path d="M79 0.963873L78.0075 0L70 8.5L78.0075 17L79 16.0361L71.9005 8.5L79 0.963873Z" fill="white"/>
<path fill-rule="evenodd" clip-rule="evenodd" d="M1.32182 17.2137V0H5.82085L12.9635 9.09903V0H17.7415V17.2137H13.5213L6.08764 7.77859V17.2137H1.32182ZM19.3194 17.2137V0H24.1337V6.98633L30.1243 0H35.836L29.2512 7.40647L35.9588 17.076V17.2137H30.2699L25.9042 10.8276L24.1337 12.7603V17.2137H19.3194ZM35.9588 17.076V0H40.7731V6.44615H46.9577V0H51.7842V17.2137H46.9577V10.6716H40.7731V17.2137H36.0543L35.9588 17.076ZM0 33.095L2.69214 29.926C4.43032 31.3024 6.30995 31.9907 8.33109 31.9907C8.96977 31.9907 9.45888 31.8846 9.79843 31.6726C10.138 31.4605 10.3078 31.1544 10.3078 30.7542C10.3078 30.3861 10.1077 30.086 9.70748 29.854C9.30729 29.6219 8.53321 29.3738 7.3852 29.1097C6.79503 28.9737 6.28369 28.8476 5.85116 28.7316C5.41864 28.6155 4.95985 28.4695 4.47478 28.2934C3.9897 28.1174 3.5774 27.9333 3.23785 27.7412C2.8983 27.5492 2.56683 27.3171 2.24345 27.045C1.92007 26.7729 1.66137 26.4788 1.46734 26.1627C1.27331 25.8466 1.11768 25.4765 1.00046 25.0523C0.883232 24.6282 0.82462 24.1641 0.82462 23.6599C0.82462 22.0353 1.43297 20.7109 2.6497 19.6866C3.86642 18.6622 5.5015 18.15 7.55497 18.15C10.3318 18.15 12.6646 18.8698 14.5536 20.3093V20.6491L12.2965 23.8039C10.6715 22.6756 9.05062 22.1114 7.43371 22.1114C6.86779 22.1114 6.43527 22.2174 6.13614 22.4295C5.83701 22.6415 5.68745 22.9196 5.68745 23.2638C5.68745 23.6639 5.88754 23.974 6.28773 24.1941C6.68791 24.4141 7.49029 24.6602 8.69489 24.9323C9.76205 25.1644 10.6675 25.4185 11.4113 25.6946C12.1551 25.9707 12.8241 26.3168 13.4183 26.7329C14.0125 27.1491 14.4551 27.6552 14.7461 28.2514C15.0372 28.8476 15.1827 29.5458 15.1827 30.3461C15.1827 32.0827 14.544 33.4511 13.2667 34.4515C11.9893 35.4518 10.2835 35.952 8.14919 35.952C6.58078 35.952 5.09325 35.7099 3.68654 35.2257C2.27982 34.7416 1.05099 34.0313 0 33.095ZM14.5536 20.6491V22.6275H19.7681V35.6519H24.5824V22.6275H29.809V18.4381H14.5536V20.3093C14.606 20.3493 14.658 20.3898 14.7098 20.4308L14.5536 20.6491ZM30.1986 28.1014V18.4381H35.0856V28.0053C35.0856 29.2137 35.3686 30.126 35.9345 30.7422C36.5004 31.3585 37.2846 31.6666 38.2871 31.6666C39.2896 31.6666 40.0738 31.3705 40.6397 30.7783C41.2056 30.1861 41.4886 29.3018 41.4886 28.1254V18.4381H46.3878V27.9813C46.3878 29.3498 46.1978 30.5462 45.8178 31.5705C45.4379 32.5949 44.8881 33.4271 44.1686 34.0674C43.4491 34.7076 42.5941 35.1857 41.6038 35.5018C40.6134 35.8179 39.4917 35.976 38.2386 35.976C35.692 35.976 33.7153 35.3218 32.3086 34.0133C30.9019 32.7049 30.1986 30.7343 30.1986 28.1014ZM47.7474 18.4381V35.6519H54.3565C55.8926 35.6519 57.2872 35.4338 58.5403 34.9977C59.7934 34.5615 60.8363 33.9573 61.669 33.1851C62.5017 32.4128 63.1424 31.4985 63.5911 30.4421C64.0397 29.3858 64.2641 28.2374 64.2641 26.997C64.2641 25.7406 64.0418 24.5882 63.5971 23.5398C63.1525 22.4915 62.5178 21.5892 61.6932 20.8329C60.8686 20.0767 59.8378 19.4885 58.6009 19.0684C57.364 18.6482 55.9815 18.4381 54.4535 18.4381H47.7474ZM52.5618 31.4265H54.5263C55.9896 31.4265 57.1538 31.0403 58.0188 30.2681C58.8839 29.4958 59.3164 28.4135 59.3164 27.021C59.3164 25.6605 58.8818 24.5882 58.0127 23.8039C57.1437 23.0197 55.9815 22.6275 54.5263 22.6275H52.5618V31.4265ZM65.3448 18.4381V35.6519H70.1955V18.4381H65.3448ZM71.2763 27.045C71.2763 25.8286 71.5168 24.6702 71.9978 23.5699C72.4789 22.4695 73.1317 21.5192 73.9563 20.7189C74.7809 19.9186 75.7753 19.2824 76.9395 18.8103C78.1037 18.3381 79.3446 18.102 80.6624 18.102C81.9802 18.102 83.2191 18.3361 84.3792 18.8043C85.5394 19.2724 86.5297 19.9046 87.3503 20.7009C88.1709 21.4972 88.8176 22.4455 89.2906 23.5458C89.7635 24.6462 90 25.8126 90 27.045C90 28.2614 89.7595 29.4218 89.2785 30.5262C88.7974 31.6305 88.1446 32.5829 87.32 33.3831C86.4954 34.1834 85.501 34.8196 84.3368 35.2918C83.1726 35.7639 81.9317 36 80.6139 36C78.8595 36 77.2669 35.6019 75.8359 34.8056C74.405 34.0093 73.2873 32.929 72.4829 31.5645C71.6785 30.2001 71.2763 28.6936 71.2763 27.045ZM77.4731 30.3221C76.6323 29.4098 76.2119 28.3174 76.2119 27.045C76.2119 25.7486 76.6242 24.6502 77.4488 23.7499C78.2734 22.8496 79.3284 22.3995 80.6139 22.3995C81.9155 22.3995 82.9867 22.8556 83.8275 23.7679C84.6683 24.6802 85.0887 25.7726 85.0887 27.045C85.0887 28.3415 84.6764 29.4398 83.8517 30.3401C83.0271 31.2404 81.964 31.6906 80.6624 31.6906C79.3769 31.6906 78.3138 31.2344 77.4731 30.3221Z" fill="white"/>
</g>
</svg>
