<svg width="16" height="15" viewBox="0 0 16 15" fill="none" xmlns="http://www.w3.org/2000/svg">
<path fill-rule="evenodd" clip-rule="evenodd" d="M7.61713 11.531L2.98477 14.2886L4.21984 9.10342L0.12181 5.62255L5.51749 5.17551L7.61713 0.266663L9.71677 5.17551L15.1124 5.62255L11.0144 9.10342L12.2495 14.2886L7.61713 11.531Z" fill="white"/>
<path d="M7.87288 11.1014L7.61713 10.9491L7.36137 11.1014L3.74518 13.254L4.70623 9.21928L4.7773 8.9209L4.54353 8.72234L1.36368 6.02137L5.55877 5.6738L5.8588 5.64895L5.9772 5.37214L7.61713 1.53808L9.25705 5.37214L9.37545 5.64895L9.67548 5.6738L13.8706 6.02137L10.6907 8.72234L10.457 8.9209L10.528 9.21928L11.4891 13.254L7.87288 11.1014Z" stroke="black" stroke-opacity="0.25"/>
</svg>
