<svg width="16" height="15" viewBox="0 0 16 15" fill="none" xmlns="http://www.w3.org/2000/svg">
<path fill-rule="evenodd" clip-rule="evenodd" d="M7.85492 11.531L3.22256 14.2886L4.45763 9.10342L0.359603 5.62255L5.75528 5.17551L7.85492 0.266663L9.95456 5.17551L15.3502 5.62255L11.2522 9.10342L12.4873 14.2886L7.85492 11.531Z" fill="#F7B500"/>
<path d="M8.11067 11.1014L7.85492 10.9491L7.59916 11.1014L3.98297 13.254L4.94402 9.21928L5.01509 8.9209L4.78132 8.72234L1.60148 6.02137L5.79656 5.6738L6.09659 5.64895L6.21499 5.37214L7.85492 1.53808L9.49484 5.37214L9.61324 5.64895L9.91327 5.6738L14.1084 6.02137L10.9285 8.72234L10.6947 8.9209L10.7658 9.21928L11.7269 13.254L8.11067 11.1014Z" stroke="black" stroke-opacity="0.1"/>
</svg>
