<svg width="23" height="19" viewBox="0 0 23 19" fill="none" xmlns="http://www.w3.org/2000/svg">
<path d="M1.48892 19C2.81696 14.6285 6.2035 12.6464 10.7159 12.6464H12.2792C16.3817 12.6464 20.4527 15.268 21.5015 18.984L23 18.5148C21.7354 14.0344 17.0234 11 12.2792 11H10.7159C5.58543 11 1.56267 13.3544 0 18.4983L1.48892 19Z" fill="white"/>
<path fill-rule="evenodd" clip-rule="evenodd" d="M17 4.5C17 6.98528 14.9853 9 12.5 9C10.0147 9 8 6.98528 8 4.5C8 2.01472 10.0147 0 12.5 0C14.9853 0 17 2.01472 17 4.5ZM9.5 4.5C9.5 6.15685 10.8431 7.5 12.5 7.5C14.1569 7.5 15.5 6.15685 15.5 4.5C15.5 2.84315 14.1569 1.5 12.5 1.5C10.8431 1.5 9.5 2.84315 9.5 4.5Z" fill="white"/>
</svg>
