<svg width="49" height="48" viewBox="0 0 49 48" fill="none" xmlns="http://www.w3.org/2000/svg">
<path opacity="0.5" fill-rule="evenodd" clip-rule="evenodd" d="M48.8233 24C48.8233 37.2548 38.0445 48 24.7483 48C11.452 48 0.67325 37.2548 0.67325 24C0.67325 10.7452 11.452 0 24.7483 0C38.0445 0 48.8233 10.7452 48.8233 24ZM35.6088 16.9094C36.2994 17.6038 36.5248 19.1777 36.5248 19.1777C36.5248 19.1777 36.7563 20.7157 36.7563 22.5644V24.8494C36.7563 26.6974 36.5248 28.3047 36.5248 28.3047C36.5248 28.3047 36.2994 29.8786 35.6088 30.5715C34.8178 31.3917 33.9405 31.4762 33.4452 31.524C33.391 31.5292 33.3414 31.534 33.297 31.5392C30.0677 31.7699 25.2203 31.7014 25.2203 31.7014C25.2203 31.7014 19.2216 31.7235 17.3759 31.5484C17.2883 31.5322 17.1822 31.5195 17.062 31.5052C16.4772 31.4356 15.5598 31.3263 14.8318 30.5715C14.1397 29.8778 13.9151 28.3047 13.9151 28.3047C13.9151 28.3047 13.6844 26.6966 13.6844 24.8487V22.5637C13.6844 20.7157 13.9151 19.1777 13.9151 19.1777C13.9151 19.1777 14.1397 17.6038 14.8318 16.9102C15.6228 16.0899 16.5001 16.0054 16.9955 15.9577C17.0496 15.9524 17.0992 15.9477 17.1436 15.9424C20.3721 15.7109 25.2203 15.7109 25.2203 15.7109C25.2203 15.7109 30.0677 15.7109 33.297 15.9416C33.342 15.947 33.3923 15.9519 33.4473 15.9573C33.943 16.0056 34.8189 16.091 35.6088 16.9094ZM29.2997 23.7111L23.1472 20.6655V26.7568L29.2997 23.7111Z" fill="white" fill-opacity="0.474131"/>
</svg>
