<?xml version="1.0" encoding="UTF-8"?>
<svg width="18px" height="17px" viewBox="0 0 18 17" version="1.1" xmlns="http://www.w3.org/2000/svg" xmlns:xlink="http://www.w3.org/1999/xlink">
    <!-- Generator: Sketch 52.6 (67491) - http://www.bohemiancoding.com/sketch -->
    <title>Combined Shape</title>
    <desc>Created with Sketch.</desc>
    <g id="BuyGrid" stroke="none" stroke-width="1" fill="none" fill-rule="evenodd">
        <g id="buygrid_catalog-1600" transform="translate(-675.000000, -121.000000)" fill="#FFFFFF" fill-rule="nonzero">
            <g id="Group-28-Copy" transform="translate(665.000000, 114.000000)">
                <g id="iconfinder_Gloves_2998139" transform="translate(10.000000, 7.000000)">
                    <g id="Group">
                        <path d="M15.8963878,10.4152738 L17.2000884,11.0807842 C17.4736446,11.2204286 17.6950006,11.433752 17.8351392,11.6924425 C18.1931906,12.3533911 17.948432,13.1505245 17.2906583,13.541744 L17.153653,13.6144151 L10.7034016,16.6464763 C9.78584549,17.0777907 8.71579264,17.1147499 7.77125211,16.7556426 L7.55563579,16.6657401 L0.864516181,13.6225912 C0.571355045,13.4892603 0.331456655,13.2731167 0.17908178,13.0054114 C-0.193230841,12.3513005 0.0341826933,11.5498041 0.683250829,11.1463549 L0.818633755,11.071134 L2.1460525,10.4155203 L0.87977197,9.88366068 C0.586841359,9.76062478 0.344205454,9.55873575 0.188018126,9.30532085 C-0.22757408,8.63101995 0.0711457031,7.79397992 0.834408485,7.44583759 L2.48249899,6.69410425 L0.980248224,6.08695047 C0.614400622,5.93126072 0.319247063,5.64701045 0.151317177,5.28864101 C-0.225376589,4.48476068 0.125460035,3.52982597 0.93493271,3.15573464 L7.33136528,0.349738354 C8.35567188,-0.123636758 9.53970478,-0.116133815 10.5578451,0.370183814 L17.0836976,3.16472346 C17.4299232,3.33009911 17.7055249,3.61252228 17.8611072,3.9613749 C18.2226677,4.77207951 17.8539925,5.72036319 17.037648,6.07942578 L15.5296473,6.67469655 L17.1841104,7.45466452 C17.4582651,7.58391001 17.6827838,7.78373166 17.8267359,8.02913653 C18.2030642,8.67068859 17.9434924,9.44451532 17.2693634,9.81216064 L17.1381602,9.87620274 L15.8963878,10.4152738 Z M14.6757213,10.9451825 L10.6881193,12.6762572 C9.78364756,13.0689013 8.73291132,13.1046531 7.80101738,12.7820671 L7.5706732,12.6939544 L3.39821238,10.941449 L1.33437555,11.9607805 C1.11347436,12.0698838 1.02838074,12.3280721 1.14680527,12.5361306 C1.17680764,12.5888413 1.21809576,12.6346008 1.26761307,12.6707685 L1.34767885,12.7174962 L8.03879846,15.7606451 C8.66192628,16.0440462 9.38144575,16.065751 10.0187671,15.8268448 L10.2073189,15.7473557 L16.6575703,12.7152945 C16.8806759,12.6104195 16.9713145,12.3539709 16.8574053,12.143699 C16.8297834,12.0927102 16.7916656,12.0478525 16.7456537,12.0115302 L16.6710404,11.9637488 L14.6757213,10.9451825 Z M3.78959302,7.22238295 L1.31909832,8.34923443 C1.11002784,8.44459645 1.03844446,8.64517959 1.13839342,8.80734739 C1.16584985,8.85189562 1.20506816,8.89176206 1.25355311,8.92405417 L1.33291863,8.96645003 L8.02381986,11.7767438 C8.65465355,12.0417048 9.38597377,12.0619809 10.0315667,11.8386764 L10.2224865,11.7643787 L16.6725273,8.96432424 C16.8846644,8.87223251 16.9612098,8.67222396 16.8652441,8.50862474 C16.8401685,8.46587673 16.8043093,8.42715175 16.7597008,8.39501166 L16.6864806,8.35206043 L14.222757,7.19058063 L10.4519043,8.6790934 C9.49361994,9.10058712 8.40195405,9.1071394 7.43860956,8.69717946 L3.78959302,7.22238295 Z M14.2009437,6.04830231 L16.6012059,5.10081874 C16.8733207,4.98113121 16.9962125,4.66503665 16.8756923,4.39480178 C16.8238316,4.27851757 16.7319643,4.18437652 16.6165558,4.1292513 L10.0907033,1.33471165 C9.36346024,0.987341919 8.51772245,0.981982674 7.78607488,1.32010775 L1.38964231,4.12610404 C1.11981809,4.25080115 1.00287254,4.56911272 1.12843713,4.83707283 C1.18441376,4.95652931 1.28279828,5.0512794 1.40474748,5.10317598 L3.82547159,6.08154246 L3.94939042,6.02502013 L4.02242287,6.16114283 L7.86310882,7.71340498 C8.55121203,8.00623351 9.33097338,8.00155331 10.0154622,7.70048636 L14.0354815,6.11361716 L14.0984852,6 L14.2009437,6.04830231 Z" id="Combined-Shape"></path>
                    </g>
                </g>
            </g>
        </g>
    </g>
</svg>