<svg width="19" height="21" viewBox="0 0 19 21" fill="none" xmlns="http://www.w3.org/2000/svg">
<path fill-rule="evenodd" clip-rule="evenodd" d="M2.29106 2.1529C2.13754 1.21284 1.60747 0.5 0.872307 0.5H0V1.5H0.872307L0.912915 1.50867C1.05532 1.56613 1.26119 1.90613 1.32048 2.43289L1.67391 4.05592L1.68063 4.05554L3.3793 13.6273C3.52071 14.4241 4.16412 15 4.91291 15H14.0493C14.6955 15 15.2749 14.5688 15.5069 13.9152L18.618 5.14991C18.8147 4.59567 18.4372 4 17.8892 4H2.66763L2.3142 2.32105L2.29106 2.1529ZM2.86277 4.999H17.6098L16.8997 7H7.67077V8H16.5448L15.8351 10H7.67077V11H15.4803L14.5645 13.5807L14.5242 13.6744C14.4186 13.8808 14.2352 14 14.0493 14H4.91291L4.83027 13.9922C4.61208 13.9507 4.41634 13.7479 4.36391 13.4525L2.86277 4.999ZM5.17077 16.5C4.0662 16.5 3.17077 17.3954 3.17077 18.5C3.17077 19.6046 4.0662 20.5 5.17077 20.5C6.27534 20.5 7.17077 19.6046 7.17077 18.5C7.17077 17.3954 6.27534 16.5 5.17077 16.5ZM5.17077 17.5C5.72305 17.5 6.17077 17.9477 6.17077 18.5C6.17077 19.0523 5.72305 19.5 5.17077 19.5C4.61848 19.5 4.17077 19.0523 4.17077 18.5C4.17077 17.9477 4.61848 17.5 5.17077 17.5ZM12.1708 16.5C11.0662 16.5 10.1708 17.3954 10.1708 18.5C10.1708 19.6046 11.0662 20.5 12.1708 20.5C13.2753 20.5 14.1708 19.6046 14.1708 18.5C14.1708 17.3954 13.2753 16.5 12.1708 16.5ZM12.1708 17.5C12.7231 17.5 13.1708 17.9477 13.1708 18.5C13.1708 19.0523 12.7231 19.5 12.1708 19.5C11.6185 19.5 11.1708 19.0523 11.1708 18.5C11.1708 17.9477 11.6185 17.5 12.1708 17.5Z" fill="#9299A2"/>
</svg>
