<?xml version="1.0" encoding="utf-8"?>
<svg width="18px" height="15px" viewBox="0 0 18 15" version="1.1" xmlns:xlink="http://www.w3.org/1999/xlink" xmlns="http://www.w3.org/2000/svg">
  <desc>Created with Lunacy</desc>
  <defs>
    <path d="M1.5 3C2.32843 3 3 2.32843 3 1.5C3 0.671573 2.32843 0 1.5 0C0.671573 0 0 0.671573 0 1.5C0 2.32843 0.671573 3 1.5 3Z" transform="translate(5.245728 10.5)" id="path_1" />
    <path d="M1.5 3C2.32843 3 3 2.32843 3 1.5C3 0.671573 2.32843 0 1.5 0C0.671573 0 0 0.671573 0 1.5C0 2.32843 0.671573 3 1.5 3Z" transform="translate(11.24573 10.5)" id="path_2" />
    <clipPath id="clip_1">
      <use xlink:href="#path_1" />
    </clipPath>
    <clipPath id="clip_2">
      <use xlink:href="#path_2" />
    </clipPath>
  </defs>
  <g id="Group-3" transform="translate(0.5 0.5)">
    <path d="M0 2.84495e-14L2.55827 2.84495e-14L4.88992 9L14.4786 9L17 2L4.75009 2" id="Path-2" fill="none" stroke="#696969" stroke-width="1" />
    <g id="Oval">
      <g clip-path="url(#clip_1)">
        <use xlink:href="#path_1" fill="none" stroke="#696969" stroke-width="2" />
      </g>
    </g>
    <g id="Oval-Copy">
      <g clip-path="url(#clip_2)">
        <use xlink:href="#path_2" fill="none" stroke="#696969" stroke-width="2" />
      </g>
    </g>
    <path d="M7.5 0.5L0 0.5" transform="translate(7.745728 5.5)" id="Line-3" fill="none" stroke="#696969" stroke-width="1" stroke-linecap="square" />
    <path d="M6.5 0.5L-1.7486e-15 0.5" transform="translate(9.245728 3.5)" id="Line-3-Copy" fill="none" stroke="#696969" stroke-width="1" stroke-linecap="square" />
  </g>
</svg>