<svg xmlns="http://www.w3.org/2000/svg" width="18" height="17" viewBox="0 0 18 17" fill="none">
<path fill-rule="evenodd" clip-rule="evenodd" d="M1.93493 3.15573L8.00665 0.349738C9.03096 -0.123637 10.215 -0.116134 11.2331 0.370184L17.0837 3.16472C17.4299 3.3301 17.7055 3.61252 17.8611 3.96137C18.2227 4.77208 17.854 5.72036 17.0376 6.07943L15.6043 6.70988L17.1841 7.45466C17.4583 7.58391 17.6828 7.78373 17.8267 8.02914C18.2031 8.67069 17.9435 9.44452 17.2694 9.81216L17.1382 9.8762L15.8964 10.4153L17.2001 11.0808C17.4736 11.2204 17.695 11.4338 17.8351 11.6924C18.1932 12.3534 17.9484 13.1505 17.2907 13.5417L17.1537 13.6144L10.7034 16.6465C9.78585 17.0778 8.71579 17.1147 7.77125 16.7556L7.55564 16.6657L0.864516 13.6226C0.571355 13.4893 0.331457 13.2731 0.179082 13.0054C-0.193231 12.3513 0.0341827 11.5498 0.683251 11.1464L0.818634 11.0711L2.14605 10.4155L0.879772 9.88366C0.586841 9.76062 0.344205 9.55874 0.188018 9.30532C-0.227574 8.63102 0.0711457 7.79398 0.834408 7.44584L2.92871 6.49058L1.98025 6.08695C1.6144 5.93126 1.31925 5.64701 1.15132 5.28864C0.774623 4.48476 1.12546 3.52983 1.93493 3.15573ZM3.39821 10.9414L1.33438 11.9608C1.11347 12.0699 1.02838 12.3281 1.14681 12.5361C1.17681 12.5888 1.2181 12.6346 1.26761 12.6708L1.34768 12.7175L8.0388 15.7606C8.66193 16.044 9.38145 16.0658 10.0188 15.8268L10.2073 15.7474L16.6576 12.7153C16.8807 12.6104 16.9713 12.354 16.8574 12.1437C16.8298 12.0927 16.7917 12.0479 16.7457 12.0115L16.671 11.9637L14.6757 10.9452L10.6881 12.6763C9.78365 13.0689 8.73291 13.1047 7.80102 12.7821L7.57067 12.694L3.39821 10.9414ZM14.0985 6L14.3197 6.1043L16.6012 5.10082C16.8733 4.98113 16.9962 4.66504 16.8757 4.3948C16.8238 4.27852 16.732 4.18438 16.6166 4.12925L10.766 1.33471C10.0387 0.987342 9.19301 0.981983 8.46136 1.32011L2.38964 4.1261C2.11982 4.2508 2.00287 4.56911 2.12844 4.83707C2.18441 4.95653 2.2828 5.05128 2.40475 5.10318L8.53839 7.7134C9.2265 8.00623 10.0063 8.00155 10.6907 7.70049L13.9506 6.26666L14.0985 6ZM16.6865 8.35206L14.3621 7.25626L11.1272 8.67909C10.1689 9.10059 9.07724 9.10714 8.1139 8.69718L4.20408 7.03332L1.3191 8.34923C1.11003 8.4446 1.03844 8.64518 1.13839 8.80735C1.16585 8.8519 1.20507 8.89176 1.25355 8.92405L1.33292 8.96645L8.02382 11.7767C8.65465 12.0417 9.38597 12.062 10.0316 11.8387L10.2225 11.7644L16.6725 8.96432C16.8847 8.87223 16.9612 8.67222 16.8652 8.50863C16.8402 8.46588 16.8043 8.42715 16.7597 8.39501L16.6865 8.35206Z" fill="currentColor"/>
</svg>
