<svg width="12" height="16" viewBox="0 0 12 16" fill="none" xmlns="http://www.w3.org/2000/svg">
<path fill-rule="evenodd" clip-rule="evenodd" d="M11.75 5.79081C11.75 2.72354 9.16845 0.25 6 0.25C2.83155 0.25 0.25 2.72354 0.25 5.79081C0.25 5.95626 0.257376 6.12147 0.272069 6.28336C0.340616 7.0404 0.569576 7.76542 0.941363 8.42751L1.09272 8.67875L5.96418 15.5649L10.8874 8.70987L11.0451 8.44843L11.1807 8.19233C11.4805 7.58946 11.6644 6.95005 11.7276 6.28674C11.7426 6.12147 11.75 5.95626 11.75 5.79081ZM1.75 5.79081C1.75 3.56665 3.64597 1.75 6 1.75C8.35403 1.75 10.25 3.56665 10.25 5.79081C10.25 5.91131 10.2446 6.03129 10.2341 6.14779C10.1821 6.6928 10.0159 7.21821 9.74757 7.69611L9.62177 7.90579L5.96418 13.2339L2.35704 7.87241L2.23723 7.67243L2.13266 7.47195C1.93514 7.06384 1.80817 6.61426 1.76594 6.14794C1.75536 6.03129 1.75 5.91131 1.75 5.79081ZM8.37128 5.79081C8.37128 6.01215 8.33855 6.22934 8.27708 6.42852C7.98567 7.41265 7.05915 8.09425 6 8.09425C4.9419 8.09425 4.01511 7.41375 3.72333 6.43293C3.56461 5.90068 3.60686 5.32821 3.85385 4.79264C4.07904 4.29544 4.49434 3.90119 5.00788 3.68966C6.63834 3.01714 8.37128 4.12915 8.37128 5.79081ZM5.21812 5.41615C5.28588 5.26657 5.41457 5.14441 5.57951 5.07647C6.23669 4.8054 6.87128 5.2126 6.87128 5.79081C6.87128 5.86231 6.861 5.93052 6.84125 5.99458C6.7373 6.34545 6.3991 6.59425 6 6.59425C5.60108 6.59425 5.26228 6.34548 5.16092 6.00475C5.10673 5.82303 5.12125 5.62619 5.21812 5.41615Z" fill="white"/>
</svg>
