<svg width="52" height="52" viewBox="0 0 52 52" fill="none" xmlns="http://www.w3.org/2000/svg">
<path opacity="0.6" fill-rule="evenodd" clip-rule="evenodd" d="M1 26C1 39.8088 12.2287 51 26.0781 51C39.93 51 51.1562 39.8088 51.1562 26C51.1562 12.1925 39.93 1 26.0781 1C12.2287 1 1 12.1925 1 26Z" stroke="white"/>
<path fill-rule="evenodd" clip-rule="evenodd" d="M19.0198 13.2413C20.5333 12.9563 21.5251 14.6575 22.28 15.8313C23.0148 16.9713 23.9189 18.3088 23.554 19.7925C23.3508 20.625 22.596 21.0788 22.0255 21.57C21.4624 22.055 20.6048 22.5 20.3966 23.245C20.0568 24.4538 20.8004 25.7225 21.2606 26.445C22.3063 28.0775 23.5703 29.5488 25.184 30.8625C25.9652 31.5 27.0499 32.3513 28.137 32.1325C29.7608 31.805 30.1896 29.8088 31.9576 29.5425C33.6404 29.2888 34.7789 30.505 35.7294 31.32C36.6447 32.1088 38.1218 33.1188 38.0215 34.47C37.9626 35.2463 37.3382 35.7275 36.7965 36.1963C36.246 36.675 35.7632 37.2125 35.2191 37.5663C33.9012 38.4238 32.2849 38.8438 30.4291 38.7863C28.6097 38.73 27.1602 38.1138 25.8449 37.415C23.2731 36.0475 21.2405 34.1238 19.3258 31.98C17.4424 29.8725 15.7033 27.3775 14.7415 24.6188C13.5415 21.1738 14.176 17.635 16.1183 15.4275C16.4468 15.0525 16.9659 14.6613 17.4412 14.2588C17.9151 13.855 18.354 13.3663 19.0198 13.2413V13.2413Z" fill="white"/>
</svg>
