<svg width="50" height="48" viewBox="0 0 50 48" fill="none" xmlns="http://www.w3.org/2000/svg">
<path opacity="0.5" fill-rule="evenodd" clip-rule="evenodd" d="M49.1214 24C49.1214 37.2548 38.3426 48 25.0464 48C11.7501 48 0.971367 37.2548 0.971367 24C0.971367 10.7452 11.7501 0 25.0464 0C38.3426 0 49.1214 10.7452 49.1214 24ZM37.6423 14.3383C37.2838 15.5165 36.5517 16.4429 35.446 17.1217C36.4408 16.9835 37.4028 16.7112 38.3333 16.3102C37.6915 17.2804 36.8527 18.1589 35.8154 18.9389V19.5794C35.8154 21.9057 35.2845 24.1335 34.2117 26.2737C33.1443 28.4166 31.483 30.2366 29.232 31.7118C26.9809 33.1952 24.3946 33.9368 21.4675 33.9368C18.6075 33.9368 16.0226 33.1883 13.7004 31.6803C13.9481 31.7241 14.3572 31.7323 14.9347 31.7323C17.2925 31.7323 19.3766 31.0248 21.1993 29.5948C20.0937 29.5647 19.1098 29.224 18.2545 28.5781C17.3965 27.9349 16.8026 27.0947 16.4879 26.0588C16.6671 26.1368 16.9695 26.1724 17.3965 26.1724C17.859 26.1724 18.3092 26.1204 18.7362 26.0109C17.558 25.7592 16.5932 25.1694 15.842 24.2443C15.0934 23.3097 14.7199 22.2478 14.7199 20.9765C15.3617 21.3309 16.1157 21.5472 16.9709 21.6197C15.4711 20.5838 14.7199 19.1729 14.7199 17.3926C14.7199 16.5264 14.9525 15.6889 15.4178 14.8665C18.1628 18.2274 21.6468 19.9735 25.8561 20.1172C25.7493 19.7969 25.696 19.4193 25.696 18.9964C25.696 17.6047 26.19 16.4128 27.1684 15.4317C28.1523 14.4574 29.3579 13.9565 30.7851 13.9565C32.2452 13.9565 33.4631 14.482 34.4251 15.5165C35.4952 15.3003 36.5667 14.9089 37.6423 14.3383Z" fill="white" fill-opacity="0.474131"/>
</svg>
